<?xml version="1.0" encoding="UTF-8" standalone="no"?>
<!DOCTYPE svg PUBLIC "-//W3C//DTD SVG 1.1//EN" "http://www.w3.org/Graphics/SVG/1.1/DTD/svg11.dtd">
<svg width="100%" height="100%" viewBox="0 0 52 52" version="1.1" xmlns="http://www.w3.org/2000/svg" xmlns:xlink="http://www.w3.org/1999/xlink" xml:space="preserve" xmlns:serif="http://www.serif.com/" style="fill-rule:evenodd;clip-rule:evenodd;stroke-linejoin:round;stroke-miterlimit:2;">
    <g transform="matrix(0.435303,0,0,0.435303,26.0671,29.3502)">
        <path d="M51.911,16.242C51.152,7.888 45.239,1.827 37.839,1.827C32.909,1.827 28.395,4.48 25.855,8.732C23.338,4.425 19.009,1.826 14.158,1.826C6.759,1.826 0.845,7.887 0.087,16.241C0.027,16.61 -0.219,18.552 0.529,21.719C1.607,26.287 4.097,30.442 7.728,33.732L25.843,50.171L44.269,33.733C47.9,30.442 50.39,26.288 51.468,21.719C52.216,18.553 51.97,16.611 51.911,16.242ZM49.521,21.261C48.537,25.433 46.256,29.234 42.931,32.246L25.855,47.481L9.072,32.25C5.741,29.232 3.461,25.432 2.476,21.26C1.768,18.263 2.059,16.57 2.06,16.559L2.075,16.458C2.725,9.139 7.806,3.826 14.158,3.826C18.845,3.826 22.971,6.706 24.929,11.341L25.85,13.524L26.771,11.341C28.698,6.777 33.042,3.827 37.84,3.827C44.191,3.827 49.273,9.14 49.936,16.554C49.938,16.57 50.229,18.264 49.521,21.261Z" style="fill:rgb(39,131,137);fill-rule:nonzero;"/>
    </g>
    <g transform="matrix(0.101408,0,0,0.101111,26.0102,25.9984)">
        <g transform="matrix(1,0,0,1,-256,-256)">
            <path d="M367.57,256.909C357.731,252.232 347.692,248.203 337.477,244.828C370.56,219.996 392,180.455 392,136C392,61.01 330.991,0 256,0C181.009,0 120,61.01 120,136C120,180.504 141.488,220.084 174.633,244.911C144.265,254.909 115.77,270.466 90.83,290.98C45.098,328.597 13.301,381.066 1.298,438.723C-2.464,456.789 2.043,475.345 13.661,489.631C25.222,503.847 42.365,512 60.693,512L307,512C318.046,512 327,503.046 327,492C327,480.954 318.046,472 307,472L60.693,472C52.155,472 47.004,467.234 44.694,464.394C40.705,459.489 39.161,453.104 40.458,446.875C61.213,347.18 149.149,274.354 250.698,271.898C252.457,271.966 254.224,272 256,272C257.793,272 259.578,271.965 261.354,271.896C292.474,272.626 322.404,279.728 350.398,293.036C360.375,297.776 372.305,293.535 377.047,283.558C381.789,273.582 377.547,261.651 367.57,256.909ZM260.878,231.877C259.255,231.848 257.629,231.833 256,231.833C254.386,231.833 252.772,231.849 251.16,231.879C200.465,229.35 160,187.312 160,136C160,83.065 203.065,40 256,40C308.935,40 352,83.065 352,136C352,187.299 311.555,229.329 260.878,231.877Z" style="fill:rgb(39,131,137);fill-rule:nonzero;"/>
        </g>
    </g>
</svg>
